<?xml version="1.0" standalone="no"?>
<!DOCTYPE svg PUBLIC "-//W3C//DTD SVG 1.1//EN"
	"http://www.w3.org/Graphics/SVG/1.1/DTD/svg11.dtd">
<svg xmlns="http://www.w3.org/2000/svg" version="1.1"
	xmlns:xlink="http://www.w3.org/1999/xlink"
	xml:space='preserve' color="black"
	width="8.27in" height="11.69in" viewBox="0 0 595 842">
<title>shave.abc page 1</title>
<!-- Creator: abcm2ps-7.7.1 -->
<!-- CreationDate: Feb 26, 2014 13:38 -->
<!-- CommandLine: -c -O= -v shave.abc -->
<g transform="scale(0.750)" stroke-width="0.70">
<path stroke="currentColor" fill="none"
	d="M278.34 129.89v-24.00"/>
<path stroke="currentColor" fill="none" stroke-width="3"
	d="M438.94 129.89v-24.00"/>
<path stroke="currentColor" fill="none"
	d="M434.44 129.89v-24.00"/>
<path stroke="currentColor" fill="none"
	d="M68.04 129.89h372.40m-372.40 -6h372.40m-372.40 -6h372.40m-372.40 -6h372.40m-372.40 -6h372.40"/>
<path fill="currentColor"
	d="M206.34 128.89c6.06 4.45 32.44 5.89 38.50 2.10
	l0.00 0.24c-7.22 5.55 -31.28 4.11 -38.50 -2.34"/>
</g>
<g transform="scale(0.750)" stroke-width="0.70" font-family="Times" font-size="12.00" font-weight="bold" font-style="italic">
<text x="108.54" y="96.49">Scherzando</text>
<defs>
<path id="utclef" fill="currentColor" d="m-50 -90
	c-72 -41 -72 -158 52 -188
	c150 -10 220 188 90 256
	c-114 52 -275 0 -293 -136
	c-15 -181 93 -229 220 -334
	c88 -87 79 -133 62 -210
	c-51 33 -94 105 -89 186
	c17 267 36 374 49 574
	c6 96 -19 134 -77 135
	c-80 1 -126 -93 -61 -133
	c85 -41 133 101 31 105
	c23 17 92 37 90 -92
	c-10 -223 -39 -342 -50 -617
	c0 -90 0 -162 96 -232
	c56 72 63 230 22 289
	c-74 106 -257 168 -255 316
	c9 153 148 185 252 133
	c86 -65 29 -192 -80 -176
	c-71 12 -105 67 -59 124"/>
<use id="tclef" transform="scale(0.045)"
	xlink:href="#utclef"/>
</defs>
<use x="80.04" y="129.89" xlink:href="#tclef"/>
<g font-family="Times" font-size="16" font-weight="bold" font-style="normal"
	transform="translate(98.54,129.89) scale(1.2,1)">
	<text y="-1" text-anchor="middle">4</text>
	<text y="-13" text-anchor="middle">4</text>
</g>
<defs>
<ellipse id="hd" rx="4.1" ry="2.9"
	transform="rotate(-20)" fill="currentColor"/>
</defs>
<use x="116.54" y="114.89" xlink:href="#hd"/>
<path d="M113.04 114.89v20.00" stroke="currentColor" fill="none"/>
<path fill="currentColor"
	d="M155.74 102.89l26.10 0.00v3.20l-26.10 -0.00"/>
<use x="152.54" y="123.89" xlink:href="#hd"/>
<path d="M156.04 123.89v-20.00" stroke="currentColor" fill="none"/>
<use x="178.04" y="123.89" xlink:href="#hd"/>
<path d="M181.54 123.89v-20.00" stroke="currentColor" fill="none"/>
<use x="206.34" y="120.89" xlink:href="#hd"/>
<defs>
<path id="uflat" fill="currentColor" d="
	m100 -746
	h32
	v734
	l-32 4
	m32 -332
	c46 -72 152 -90 208 -20
	c100 110 -120 326 -208 348
	m0 -28
	c54 0 200 -206 130 -290
	c-50 -60 -130 -4 -130 34"/>
<use id="ft0" transform="translate(-3.5,3.5) scale(0.018)"
	xlink:href="#uflat"/>
</defs>
<use x="197.34" y="120.89" xlink:href="#ft0"/>
<path d="M209.84 120.89v-20.00" stroke="currentColor" fill="none"/>
<use x="246.34" y="123.89" xlink:href="#hd"/>
<path d="M249.84 123.89v-20.00" stroke="currentColor" fill="none"/>
<defs>
<path id="r4" fill="currentColor" d="m-1 -8.5
	l3.6 5.1 -2.1 5.2 2.2 4.3
	c-2.6 -2.3 -5.1 0 -2.4 2.6
	c-4.8 -3 -1.5 -6.9 1.4 -4.1
	l-3.1 -4.5 1.9 -5.1 -1.5 -3.5"/>
</defs>
<use x="292.44" y="117.89" xlink:href="#r4"/>
<use x="328.44" y="117.89" xlink:href="#hd"/>
<path d="M331.94 117.89v-20.00" stroke="currentColor" fill="none"/>
<use x="368.44" y="114.89" xlink:href="#hd"/>
<path d="M364.94 114.89v20.00" stroke="currentColor" fill="none"/>
<use x="408.44" y="117.89" xlink:href="#r4"/>
<defs>
<circle id="stc" fill="currentColor" cx="1.2" cy="-3" r="1.2"/>
</defs>
<use x="116.54" y="111.89" xlink:href="#stc"/>
<defs>
<g id="accent" stroke="currentColor" fill="none">
	<path d="m-4 0l8 -2l-8 -2" stroke-width="1.2"/>
</g>
</defs>
<use x="328.44" y="93.89" xlink:href="#accent"/>
<use x="368.44" y="103.89" xlink:href="#accent"/>
</g>
</svg>
