<?xml version="1.0" encoding="UTF-8" standalone="no"?>
<!-- Created with Inkscape (http://www.inkscape.org/) -->

<svg
   xmlns:dc="http://purl.org/dc/elements/1.1/"
   xmlns:cc="http://creativecommons.org/ns#"
   xmlns:rdf="http://www.w3.org/1999/02/22-rdf-syntax-ns#"
   xmlns:svg="http://www.w3.org/2000/svg"
   xmlns="http://www.w3.org/2000/svg"
   xmlns:sodipodi="http://sodipodi.sourceforge.net/DTD/sodipodi-0.dtd"
   xmlns:inkscape="http://www.inkscape.org/namespaces/inkscape"
   id="svg2"
   version="1.1"
   inkscape:version="0.48.4 r9939"
   width="349.31238"
   height="47.435368"
   xml:space="preserve"
   sodipodi:docname="shave.svg"><metadata
     id="metadata8"><rdf:RDF><cc:Work
         rdf:about=""><dc:format>image/svg+xml</dc:format><dc:type
           rdf:resource="http://purl.org/dc/dcmitype/StillImage" /><dc:title /></cc:Work></rdf:RDF></metadata><defs
     id="defs6" /><sodipodi:namedview
     pagecolor="#ffffff"
     bordercolor="#666666"
     borderopacity="1"
     objecttolerance="10"
     gridtolerance="10"
     guidetolerance="10"
     inkscape:pageopacity="0"
     inkscape:pageshadow="2"
     inkscape:window-width="1680"
     inkscape:window-height="1000"
     id="namedview4"
     showgrid="false"
     inkscape:zoom="5.0737011"
     inkscape:cx="237.44963"
     inkscape:cy="13.828507"
     inkscape:window-x="0"
     inkscape:window-y="0"
     inkscape:window-maximized="1"
     inkscape:current-layer="g10"
     fit-margin-top="0"
     fit-margin-left="0"
     fit-margin-right="0"
     fit-margin-bottom="0"
     showguides="true"
     inkscape:guide-bbox="true" /><g
     id="g10"
     inkscape:groupmode="layer"
     inkscape:label="shave"
     transform="matrix(1.25,0,0,-1.25,-63.693875,969.85503)"><path
       inkscape:connector-curvature="0"
       id="path14"
       style="fill:none;stroke:#000000;stroke-width:0.15000001;stroke-linecap:butt;stroke-linejoin:miter;stroke-miterlimit:10;stroke-opacity:1;stroke-dasharray:none"
       d="m 208.755,744.585 0,18" /><path
       inkscape:connector-curvature="0"
       id="path16"
       style="fill:#00ffff;fill-opacity:1;fill-rule:nonzero;stroke:none"
       d="m 328.079,744.585 2.25,0 0,18 -2.25,0 0,-18 z" /><path
       inkscape:connector-curvature="0"
       id="path18"
       style="fill:#00ffff;stroke:#00ffff;stroke-width:0.24;stroke-linecap:butt;stroke-linejoin:miter;stroke-miterlimit:10;stroke-opacity:1;stroke-dasharray:none"
       d="m 325.83,744.585 0,18" /><path
       inkscape:connector-curvature="0"
       id="path20"
       style="fill:none;stroke:#000000;stroke-width:0.32;stroke-linecap:butt;stroke-linejoin:miter;stroke-miterlimit:10;stroke-opacity:1;stroke-dasharray:none"
       d="m 51.0301,744.585 279.2999,0 m -279.2999,4.5 279.2999,0 m -279.2999,4.5 279.2999,0 m -279.2999,4.5 279.2999,0 m -279.2999,4.5 279.2999,0" /><path
       inkscape:connector-curvature="0"
       id="path22"
       style="fill:#008296;fill-opacity:1;fill-rule:nonzero;stroke:none"
       d="m 154.755,745.335 c 4.545,-3.337 24.33,-4.417 28.875,-1.575 l 0,-0.18 c -5.415,-4.162 -23.46,-3.082 -28.875,1.755" /><g
       id="g24"
       style="fill:#aa4400"><text
         id="text26"
         transform="matrix(1,0,0,-1,81.4051,769.635)"
         style="fill:#aa4400"><tspan
           id="tspan28"
           sodipodi:role="line"
           y="0"
           x="0 5.0040002 9 14.004 18 21.500999 25.002001 29.502001 34.506001 39.006001"
           style="font-size:9px;font-style:italic;font-variant:normal;writing-mode:lr-tb;fill:#aa4400;fill-opacity:1;fill-rule:nonzero;stroke:none;font-family:Times New Roman;-inkscape-font-specification:Times-Bold-Italic">Scherzando</tspan></text>
</g><path
       inkscape:connector-curvature="0"
       id="path30"
       style="fill:#800080;fill-opacity:1;fill-rule:nonzero;stroke:none"
       d="m 58.3352,747.488 c -2.4301,1.383 -2.4301,5.332 1.7546,6.344 5.0625,0.338 7.425,-6.344 3.0375,-8.639 -3.8472,-1.755 -9.2812,0 -9.8886,4.589 -0.5063,6.109 3.1386,7.729 7.425,11.273 2.9699,2.936 2.6664,4.489 2.0926,7.088 -1.7211,-1.114 -3.1727,-3.544 -3.004,-6.278 0.5739,-9.011 1.2153,-12.622 1.654,-19.372 0.2023,-3.241 -0.6415,-4.523 -2.5989,-4.557 -2.7,-0.034 -4.2523,3.139 -2.0586,4.489 2.8688,1.384 4.4887,-3.409 1.0461,-3.544 0.7762,-0.574 3.1051,-1.249 3.0375,3.105 -0.3375,7.527 -1.316,11.543 -1.6875,20.824 0,3.038 0,5.467 3.2403,7.83 1.8898,-2.43 2.1261,-7.763 0.7421,-9.754 -2.4972,-3.577 -8.6734,-5.67 -8.6062,-10.665 0.3039,-5.164 4.9953,-6.244 8.5051,-4.489 2.9027,2.194 0.9789,6.481 -2.7,5.941 -2.3961,-0.405 -3.5438,-2.262 -1.991,-4.185" /><text
       style="font-size:10.95445156px;fill:#008000"
       transform="scale(1.0954451,-0.91287093)"
       id="text34"
       x="64.179482"
       y="-816.47357"><tspan
         style="font-size:13.14534092px;font-variant:normal;font-weight:bold;writing-mode:lr-tb;fill:#008000;fill-opacity:1;fill-rule:nonzero;stroke:none;font-family:Times New Roman;-inkscape-font-specification:Times-Bold"
         x="64.179482"
         y="-816.47357"
         id="tspan36">4</tspan><tspan
         style="font-size:13.14534092px;font-variant:normal;font-weight:bold;writing-mode:lr-tb;fill:#008000;fill-opacity:1;fill-rule:nonzero;stroke:none;font-family:Times New Roman;-inkscape-font-specification:Times-Bold"
         x="64.179482"
         y="-826.33258"
         id="tspan38">4</tspan></text>
<path
       inkscape:connector-curvature="0"
       id="path40"
       style="fill:#ff9600;fill-opacity:1;fill-rule:nonzero;stroke:none"
       d="m 90.2551,757.065 c -1.2903,2.775 -6.825,0.345 -5.6102,-2.43 1.2153,-2.775 6.75,-0.33 5.5352,2.43" /><path
       inkscape:connector-curvature="0"
       id="path42"
       style="fill:#ffff00;stroke:#ff9600;stroke-width:0.24;stroke-linecap:butt;stroke-linejoin:miter;stroke-miterlimit:10;stroke-opacity:1;stroke-dasharray:none"
       d="m 84.7801,755.085 0,-14.25" /><path
       inkscape:connector-curvature="0"
       id="path44"
       style="fill:#ff0000;fill-opacity:1;fill-rule:nonzero;stroke:none"
       d="m 116.805,762.435 19.575,0 0,2.4 -19.575,0 0,-2.4 z" /><path
       inkscape:connector-curvature="0"
       id="path46"
       style="fill:#e60000;fill-opacity:1;fill-rule:nonzero;stroke:none"
       d="m 117.255,750.315 c -1.29,2.775 -6.825,0.345 -5.61,-2.43 1.215,-2.775 6.75,-0.33 5.535,2.43" /><path
       inkscape:connector-curvature="0"
       id="path48"
       style="fill:#ff0000;stroke:#ff0000;stroke-width:0.24;stroke-linecap:butt;stroke-linejoin:miter;stroke-miterlimit:10;stroke-opacity:1;stroke-dasharray:none"
       d="m 117.03,749.835 0,14.25" /><path
       inkscape:connector-curvature="0"
       id="path50"
       style="fill:#ff0000;fill-opacity:1;fill-rule:nonzero;stroke:none"
       d="m 136.38,750.315 c -1.29,2.775 -6.825,0.345 -5.61,-2.43 1.215,-2.775 6.75,-0.33 5.535,2.43" /><path
       inkscape:connector-curvature="0"
       id="path52"
       style="fill:#ff0000;stroke:#ff0000;stroke-width:0.24;stroke-linecap:butt;stroke-linejoin:miter;stroke-miterlimit:10;stroke-opacity:1;stroke-dasharray:none"
       d="m 136.155,749.835 0,14.25" /><path
       inkscape:connector-curvature="0"
       id="path54"
       style="fill:#00ff00;fill-opacity:1;fill-rule:nonzero;stroke:none"
       d="m 157.605,752.565 c -1.29,2.775 -6.825,0.345 -5.61,-2.43 1.215,-2.775 6.75,-0.33 5.535,2.43" /><path
       inkscape:connector-curvature="0"
       id="path56"
       style="fill:#de28f0;fill-opacity:1;fill-rule:nonzero;stroke:none"
       d="m 146.73,758.781 0.432,0 0,-9.909 -0.432,-0.054 0,9.963 z m 0.432,-5.481 c 0.621,0.972 2.052,1.215 2.808,0.27 1.35,-1.485 -1.62,-4.401 -2.808,-4.698 m 0,0.378 c 0.729,0 2.7,2.781 1.755,3.915 -0.675,0.81 -1.755,0.054 -1.755,-0.459" /><path
       inkscape:connector-curvature="0"
       id="path58"
       style="fill:none;stroke:#00ff00;stroke-width:0.24;stroke-linecap:butt;stroke-linejoin:miter;stroke-miterlimit:10;stroke-opacity:1;stroke-dasharray:none"
       d="m 157.38,752.085 0,14.25" /><path
       inkscape:connector-curvature="0"
       id="path60"
       style="fill:#00ff00;fill-opacity:1;fill-rule:nonzero;stroke:none"
       d="m 187.605,750.315 c -1.29,2.775 -6.825,0.345 -5.61,-2.43 1.215,-2.775 6.75,-0.33 5.535,2.43" /><path
       inkscape:connector-curvature="0"
       id="path62"
       style="fill:none;stroke:#00ff00;stroke-width:0.24;stroke-linecap:butt;stroke-linejoin:miter;stroke-miterlimit:10;stroke-opacity:1;stroke-dasharray:none"
       d="m 187.38,749.835 0,14.25" /><path
       inkscape:connector-curvature="0"
       id="path64"
       style="fill:#803300;fill-opacity:1;fill-rule:nonzero;stroke:none"
       d="m 218.58,759.96 2.7,-3.825 -1.575,-3.9 1.65,-3.225 c -1.95,1.725 -3.825,0 -1.8,-1.95 -3.6,2.25 -1.125,5.175 1.05,3.075 l -2.325,3.375 1.425,3.825 -1.125,2.625" /><path
       inkscape:connector-curvature="0"
       id="path66"
       style="fill:#0000ff;fill-opacity:1;fill-rule:nonzero;stroke:none"
       d="m 249.18,754.815 c -1.29,2.775 -6.825,0.345 -5.61,-2.43 1.215,-2.775 6.75,-0.33 5.535,2.43" /><path
       inkscape:connector-curvature="0"
       id="path68"
       style="fill:none;stroke:#0000ff;stroke-width:0.24;stroke-linecap:butt;stroke-linejoin:miter;stroke-miterlimit:10;stroke-opacity:1;stroke-dasharray:none"
       d="m 248.955,754.335 0,14.25" /><path
       inkscape:connector-curvature="0"
       id="path70"
       style="fill:#ff00ff;fill-opacity:1;fill-rule:nonzero;stroke:none"
       d="m 279.18,757.065 c -1.29,2.775 -6.825,0.345 -5.61,-2.43 1.215,-2.775 6.75,-0.33 5.535,2.43" /><path
       inkscape:connector-curvature="0"
       id="path72"
       style="fill:none;stroke:#ff00ff;stroke-width:0.24;stroke-linecap:butt;stroke-linejoin:miter;stroke-miterlimit:10;stroke-opacity:1;stroke-dasharray:none"
       d="m 273.705,755.085 0,-14.25" /><path
       inkscape:connector-curvature="0"
       id="path74"
       style="fill:#217844;fill-opacity:1;fill-rule:nonzero;stroke:none"
       d="m 305.58,759.96 2.7,-3.825 -1.575,-3.9 1.65,-3.225 c -1.95,1.725 -3.825,0 -1.8,-1.95 -3.6,2.25 -1.125,5.175 1.05,3.075 l -2.325,3.375 1.425,3.825 -1.125,2.625" /><path
       inkscape:connector-curvature="0"
       id="path76"
       style="fill:#808000;fill-opacity:1;fill-rule:nonzero;stroke:none"
       d="m 87.4051,760.335 0.9,0 c 0,0.497 -0.4031,0.9 -0.9,0.9 -0.4969,0 -0.9,-0.403 -0.9,-0.9 0,-0.497 0.4031,-0.9 0.9,-0.9 0.4969,0 0.9,0.403 0.9,0.9" /><path
       inkscape:connector-curvature="0"
       id="path78"
       style="fill:none;stroke:#000000;stroke-width:0.89999998;stroke-linecap:butt;stroke-linejoin:miter;stroke-miterlimit:10;stroke-opacity:1;stroke-dasharray:none"
       d="m 243.33,771.585 6,1.5 -6,1.5" /><path
       inkscape:connector-curvature="0"
       id="path80"
       style="fill:none;stroke:#000000;stroke-width:0.89999998;stroke-linecap:butt;stroke-linejoin:miter;stroke-miterlimit:10;stroke-opacity:1;stroke-dasharray:none"
       d="m 273.33,764.085 6,1.5 -6,1.5" /></g></svg>